<svg version="1.0" xmlns="http://www.w3.org/2000/svg" width="800.000000" height="800.000000" viewBox="0 0 800.000000 800.000000" preserveAspectRatio="xMidYMid meet">
  <rect width="800" height="800" fill="#3B82F6"/>
  <g transform="translate(0.000000,800.000000) scale(0.100000,-0.100000)" fill="#FFFFFF" stroke="none">
    <path d="M3185 5881 l-90 -6 -180 -141 c-99 -77 -304 -236 -456 -352 -259 -199 -278 -215 -300 -264 l-24 -53 -3 -1275 c-2 -950 0 -1289 9 -1330 31 -145 145 -268 297 -319 60 -20 79 -21 741 -21 l679 0 4 78 c2 42 3 78 2 79 0 2 -304 4 -675 5 l-674 3 -57 28 c-62 30 -116 87 -145 153 -17 36 -18 116 -21 1229 -2 655 0 1223 3 1263 5 55 12 79 30 100 13 16 131 110 262 210 131 100 314 241 407 312 93 72 172 130 177 130 5 0 9 -185 9 -415 l0 -415 -230 0 -230 0 0 -85 0 -85 315 0 315 0 0 500 0 500 753 -2 c744 -3 752 -3 798 -24 63 -30 123 -86 151 -142 l23 -47 3 -542 3 -543 80 0 80 0 -3 568 -3 567 -34 70 c-41 83 -124 171 -197 208 -28 14 -88 35 -134 46 -80 20 -105 21 -839 19 -416 -1 -796 -4 -846 -7z"/>
    <path d="M2897 4128 c-2 -40 -3 -76 0 -80 2 -5 249 -8 549 -8 l544 0 0 80 0 80 -544 0 -543 0 -6 -72z"/>
    <path d="M4735 4129 c-405 -58 -736 -350 -851 -749 -36 -126 -45 -333 -19 -459 82 -405 353 -700 742 -808 90 -25 113 -27 273 -27 147 0 187 4 252 22 175 48 314 125 445 246 174 161 280 369 318 622 19 125 19 159 -1 275 -53 310 -205 552 -449 714 -209 139 -467 199 -710 164z m303 -175 c169 -34 322 -118 445 -241 77 -78 114 -128 162 -223 162 -320 105 -707 -143 -972 -247 -262 -605 -340 -955 -208 -84 32 -225 129 -293 202 -235 254 -302 590 -181 899 45 115 93 191 173 278 205 221 509 323 792 265z"/>
    <path d="M4850 3653 c-8 -3 -25 -15 -37 -26 -23 -20 -23 -22 -23 -329 l0 -308 265 0 266 0 24 25 c27 26 31 51 14 88 -19 41 -44 47 -229 50 l-175 2 -5 235 c-3 129 -7 236 -8 237 -6 7 -62 33 -69 32 -4 0 -15 -3 -23 -6z"/>
    <path d="M2900 3585 l0 -84 380 -1 380 0 0 85 0 85 -380 0 -380 0 0 -85z"/>
    <path d="M2900 3055 l0 -85 335 0 335 0 0 85 0 85 -335 0 -335 0 0 -85z"/>
  </g>
</svg>
