<svg xmlns="http://www.w3.org/2000/svg" viewBox="63 63 820 820" fill="none">
  <path
    d="M472.615385 78.769231c217.403077 0 393.846154 176.443077 393.846153 393.846154 0 217.403077-176.443077 393.846154-393.846153 393.846153-217.403077 0-393.846154-176.443077-393.846154-393.846153H157.538462c0 173.817436 141.259487 315.076923 315.076923 315.076923s315.076923-141.259487 315.076923-315.076923-141.259487-315.076923-315.076923-315.076923a315.076923 315.076923 0 0 0-241.558975 112.902564L315.076923 354.461538H78.769231v-236.307692l96.62359 96.62359A391.220513 391.220513 0 0 1 472.615385 78.769231z m39.384615 196.923077v180.644102l127.606154 127.606154-55.66359 55.66359-150.711795-150.711795V275.692308h78.769231z"
    fill="#13227A"
  />
</svg>
